<svg width="78" height="16" viewBox="0 0 78 16" fill="none" xmlns="http://www.w3.org/2000/svg">
<path d="M6.1 15.71C4.78 15.71 3.66667 15.5033 2.76 15.09C1.85333 14.6633 1.16667 14.09 0.7 13.37C0.233333 12.6366 0 11.7966 0 10.85H3.18C3.18 11.2233 3.28 11.57 3.48 11.89C3.69333 12.21 4.01333 12.47 4.44 12.67C4.86667 12.8566 5.42 12.95 6.1 12.95C6.71333 12.95 7.22667 12.87 7.64 12.71C8.05333 12.55 8.36667 12.33 8.58 12.05C8.79333 11.7566 8.9 11.4233 8.9 11.05C8.9 10.5833 8.7 10.2166 8.3 9.94998C7.9 9.66998 7.25333 9.48998 6.36 9.40998L5.26 9.30998C3.80667 9.18998 2.64667 8.73664 1.78 7.94998C0.913333 7.16331 0.48 6.12331 0.48 4.82998C0.48 3.89664 0.7 3.08998 1.14 2.40998C1.59333 1.72998 2.22 1.20998 3.02 0.849978C3.82 0.476645 4.76667 0.289978 5.86 0.289978C7.00667 0.289978 7.98667 0.489978 8.8 0.889977C9.62667 1.27664 10.26 1.82998 10.7 2.54998C11.14 3.25664 11.36 4.08998 11.36 5.04998H8.16C8.16 4.68998 8.07333 4.36331 7.9 4.06998C7.72667 3.76331 7.46667 3.51664 7.12 3.32998C6.78667 3.14331 6.36667 3.04998 5.86 3.04998C5.38 3.04998 4.97333 3.12998 4.64 3.28998C4.32 3.44998 4.08 3.66998 3.92 3.94998C3.76 4.21665 3.68 4.50998 3.68 4.82998C3.68 5.24331 3.82667 5.60331 4.12 5.90998C4.41333 6.21665 4.89333 6.39665 5.56 6.44998L6.68 6.54998C7.74667 6.64331 8.68667 6.87665 9.5 7.24998C10.3133 7.60998 10.9467 8.10998 11.4 8.74998C11.8667 9.37665 12.1 10.1433 12.1 11.05C12.1 11.9833 11.8533 12.8033 11.36 13.51C10.88 14.2033 10.1933 14.7433 9.3 15.13C8.40667 15.5166 7.34 15.71 6.1 15.71ZM13.7798 15.33V0.729978H16.9798V9.14998H16.4998C16.4998 8.04331 16.6398 7.10998 16.9198 6.34998C17.1998 5.58998 17.6132 5.01664 18.1598 4.62998C18.7065 4.22998 19.3932 4.02998 20.2198 4.02998H20.3598C21.5732 4.02998 22.4998 4.46331 23.1398 5.32998C23.7798 6.18331 24.0998 7.43665 24.0998 9.08998V15.33H20.8998V8.88998C20.8998 8.28998 20.7198 7.80998 20.3598 7.44998C20.0132 7.07664 19.5532 6.88998 18.9798 6.88998C18.3798 6.88998 17.8932 7.08331 17.5198 7.46998C17.1598 7.85665 16.9798 8.36998 16.9798 9.00998V15.33H13.7798ZM33.0467 15.33V12.09H32.5067V8.56998C32.5067 8.00998 32.3734 7.58998 32.1067 7.30998C31.8401 7.02998 31.4134 6.88998 30.8267 6.88998C30.5334 6.88998 30.1467 6.89665 29.6667 6.90998C29.1867 6.92331 28.6934 6.94331 28.1867 6.96998C27.6801 6.99664 27.2201 7.02331 26.8067 7.04998V4.34998C27.1134 4.32331 27.4734 4.29665 27.8867 4.26998C28.3001 4.24331 28.7267 4.22331 29.1667 4.20998C29.6067 4.19664 30.0201 4.18998 30.4067 4.18998C31.5267 4.18998 32.4667 4.34998 33.2267 4.66998C34.0001 4.98998 34.5867 5.47665 34.9867 6.12998C35.3867 6.76998 35.5867 7.59664 35.5867 8.60998V15.33H33.0467ZM29.5467 15.61C28.7601 15.61 28.0667 15.47 27.4667 15.19C26.8801 14.91 26.4201 14.51 26.0867 13.99C25.7534 13.4566 25.5867 12.8233 25.5867 12.09C25.5867 11.29 25.7934 10.6366 26.2067 10.13C26.6201 9.60998 27.2001 9.22998 27.9467 8.98998C28.6934 8.73664 29.5534 8.60998 30.5267 8.60998H32.8667V10.39H30.5067C29.9467 10.39 29.5134 10.53 29.2067 10.81C28.9134 11.0766 28.7667 11.4433 28.7667 11.91C28.7667 12.35 28.9134 12.71 29.2067 12.99C29.5134 13.2566 29.9467 13.39 30.5067 13.39C30.8667 13.39 31.1867 13.33 31.4667 13.21C31.7601 13.0766 32.0001 12.8566 32.1867 12.55C32.3734 12.2433 32.4801 11.8166 32.5067 11.27L33.2667 12.07C33.2001 12.83 33.0134 13.47 32.7067 13.99C32.4134 14.51 32.0001 14.91 31.4667 15.19C30.9467 15.47 30.3067 15.61 29.5467 15.61ZM44.5217 15.33V12.09H43.9817V8.56998C43.9817 8.00998 43.8484 7.58998 43.5817 7.30998C43.3151 7.02998 42.8884 6.88998 42.3017 6.88998C42.0084 6.88998 41.6217 6.89665 41.1417 6.90998C40.6617 6.92331 40.1684 6.94331 39.6617 6.96998C39.1551 6.99664 38.6951 7.02331 38.2817 7.04998V4.34998C38.5884 4.32331 38.9484 4.29665 39.3617 4.26998C39.7751 4.24331 40.2017 4.22331 40.6417 4.20998C41.0817 4.19664 41.4951 4.18998 41.8817 4.18998C43.0017 4.18998 43.9417 4.34998 44.7017 4.66998C45.4751 4.98998 46.0617 5.47665 46.4617 6.12998C46.8617 6.76998 47.0617 7.59664 47.0617 8.60998V15.33H44.5217ZM41.0217 15.61C40.2351 15.61 39.5417 15.47 38.9417 15.19C38.3551 14.91 37.8951 14.51 37.5617 13.99C37.2284 13.4566 37.0617 12.8233 37.0617 12.09C37.0617 11.29 37.2684 10.6366 37.6817 10.13C38.0951 9.60998 38.6751 9.22998 39.4217 8.98998C40.1684 8.73664 41.0284 8.60998 42.0017 8.60998H44.3417V10.39H41.9817C41.4217 10.39 40.9884 10.53 40.6817 10.81C40.3884 11.0766 40.2417 11.4433 40.2417 11.91C40.2417 12.35 40.3884 12.71 40.6817 12.99C40.9884 13.2566 41.4217 13.39 41.9817 13.39C42.3417 13.39 42.6617 13.33 42.9417 13.21C43.2351 13.0766 43.4751 12.8566 43.6617 12.55C43.8484 12.2433 43.9551 11.8166 43.9817 11.27L44.7417 12.07C44.6751 12.83 44.4884 13.47 44.1817 13.99C43.8884 14.51 43.4751 14.91 42.9417 15.19C42.4217 15.47 41.7817 15.61 41.0217 15.61ZM49.3767 15.33V4.36998H51.9167V9.08998H51.7367C51.7367 7.96998 51.8767 7.03664 52.1567 6.28998C52.4367 5.54331 52.8567 4.98331 53.4167 4.60998C53.9767 4.22331 54.6634 4.02998 55.4767 4.02998H55.6167C56.4434 4.02998 57.1301 4.22331 57.6767 4.60998C58.2367 4.98331 58.6567 5.54331 58.9367 6.28998C59.2301 7.03664 59.3767 7.96998 59.3767 9.08998H58.5967C58.5967 7.96998 58.7367 7.03664 59.0167 6.28998C59.3101 5.54331 59.7367 4.98331 60.2967 4.60998C60.8567 4.22331 61.5434 4.02998 62.3567 4.02998H62.4967C63.3234 4.02998 64.0167 4.22331 64.5767 4.60998C65.1501 4.98331 65.5834 5.54331 65.8767 6.28998C66.1701 7.03664 66.3167 7.96998 66.3167 9.08998V15.33H63.1167V8.90998C63.1167 8.30998 62.9567 7.82331 62.6367 7.44998C62.3301 7.07664 61.8901 6.88998 61.3167 6.88998C60.7434 6.88998 60.2901 7.08331 59.9567 7.46998C59.6234 7.84331 59.4567 8.34331 59.4567 8.96998V15.33H56.2367V8.90998C56.2367 8.30998 56.0767 7.82331 55.7567 7.44998C55.4501 7.07664 55.0167 6.88998 54.4567 6.88998C53.8701 6.88998 53.4101 7.08331 53.0767 7.46998C52.7434 7.84331 52.5767 8.34331 52.5767 8.96998V15.33H49.3767ZM72.8047 15.67C71.2447 15.67 70.0247 15.35 69.1447 14.71C68.2647 14.07 67.798 13.17 67.7447 12.01H70.5847C70.638 12.3566 70.8447 12.67 71.2047 12.95C71.578 13.2166 72.1314 13.35 72.8647 13.35C73.4247 13.35 73.8847 13.2566 74.2447 13.07C74.618 12.87 74.8047 12.59 74.8047 12.23C74.8047 11.91 74.6647 11.6566 74.3847 11.47C74.1047 11.27 73.6047 11.13 72.8847 11.05L72.0247 10.97C70.7047 10.8366 69.7114 10.47 69.0447 9.86998C68.3914 9.26998 68.0647 8.50331 68.0647 7.56998C68.0647 6.79665 68.258 6.14998 68.6447 5.62998C69.0314 5.10998 69.5647 4.71664 70.2447 4.44998C70.938 4.18331 71.7247 4.04998 72.6047 4.04998C74.018 4.04998 75.158 4.36331 76.0247 4.98998C76.8914 5.60331 77.3447 6.49664 77.3847 7.66998H74.5447C74.4914 7.30998 74.3047 7.00998 73.9847 6.76998C73.6647 6.51664 73.1914 6.38998 72.5647 6.38998C72.0714 6.38998 71.678 6.48331 71.3847 6.66998C71.0914 6.85664 70.9447 7.10998 70.9447 7.42998C70.9447 7.73665 71.0714 7.96998 71.3247 8.12998C71.578 8.28998 71.9914 8.40331 72.5647 8.46998L73.4247 8.54998C74.7714 8.69664 75.818 9.06998 76.5647 9.66998C77.3114 10.27 77.6847 11.0766 77.6847 12.09C77.6847 12.8233 77.4847 13.4633 77.0847 14.01C76.6847 14.5433 76.118 14.9566 75.3847 15.25C74.6514 15.53 73.7914 15.67 72.8047 15.67Z" fill="black"/>
</svg>
